<?xml version="1.0" encoding="UTF-8"?><svg id="Layer_2" xmlns="http://www.w3.org/2000/svg" viewBox="0 0 1080 1080"><defs><style>.cls-1{fill:#fff;}.cls-2,.cls-3{fill:#000089;}.cls-3{fill-rule:evenodd;}</style></defs><g id="Layer_1-2"><rect class="cls-1" width="1080" height="1080"/><path class="cls-2" d="M604.61,441.92c4.78.2,3.82-1.12-3.61-4.94-5.75-3-6.21-3.31-6.21-4.68,0-1.83-1.02-2.65-7.59-5.85-5.09-2.49-5.14-2.55-5.14-4.33,0-5.09-4.22-8.75-10.79-9.42-1.99-.15-3.66-.25-3.77-.1-.1.1.81,1.22,2.09,2.5,3.46,3.51,3,4.12-1.37,1.98-3.05-1.53-4.33-1.88-7.58-2.04-4.07-.15-8.5.76-11.1,2.34-3.31,2.04-5.14,3.36-5.14,3.77,0,.25,1.27.46,2.85.46,4.53,0,6.51,1.63,2.7,2.24-3.71.61-8.4,3.1-11.15,5.96-2.5,2.6-7.69,11.76-7.03,12.42.15.2,1.23-.15,2.34-.71,1.12-.56,3.05-1.17,4.27-1.37l2.19-.36-2.85,3.05c-3.31,3.46-5.09,6.67-6.21,11.35-1.07,4.22-1.73,12.22-1.02,12.22s2.96-1.73,5.96-4.53l2.44-2.34-.41,2.04c-.25,1.12-.46,4.33-.46,7.13,0,4.68.15,5.34,1.68,8.6,2.54,5.35,2.09,7.13-.87,3.41-2.19-2.75-3.66-6.21-3.97-9.52-.15-1.53-.51-2.75-.76-2.75s-2.09,1.02-4.07,2.29c-3.92,2.6-3.87,2.29-.71,5.7.82.91,1.33,1.83,1.12,2.03-.48.52-3.87-1.32-6.88-3.57-3.69,7.33-11.15,12.54-19.71,12.96-.28.17-.56.33-.85.5-1.86,1.67-5.41,4.45-10.24,7.98-19.14,13.89-21.68,16.03-26.31,21.89-3.51,4.38-7.08,11.4-8.91,17.41-.67,2.39-1.94,8.2-2.75,12.98-2.39,13.84-4.58,18.88-9.72,22.14-7.08,4.58-15.22,1.12-17.51-7.38-1.99-7.28.1-16.55,7.43-32.73,9.42-20.77,10.43-32.32,3.46-39.24-7.58-7.48-22.5-3.92-26.42,6.36-.97,2.65-1.12,3.87-1.07,10.49.05,6.46-.1,7.84-1.02,10.33-.56,1.58-.97,2.95-.86,3.06.1.1,1.22-.25,2.44-.81,4.38-1.99,7.13-5.75,7.13-9.88,0-1.27.2-2.29.46-2.29.82,0,1.22,2.09,1.22,5.7-.05,3.21,0,3.41.87,2.95,1.58-.87,3.05-3.11,3.87-5.96.71-2.49.71-3.11,0-6.72-1.22-5.96-1.12-7.48.71-9.31,1.42-1.37,1.83-1.53,3.87-1.27,6.52.71,8.6,9.06,5.04,20.21-.76,2.34-3.16,8.4-5.35,13.49-7.18,16.8-8.55,21.17-9.01,29.26-.56,10.59,3.11,17.97,10.69,21.58,10.08,4.73,22.19-.1,28.71-11.41,1.32-2.34,2.85-6.31,4.48-11.86.71-2.44,1.48-4.43,1.68-4.43s.87.76,1.48,1.73c.61.97,2.29,2.49,3.72,3.41,2.49,1.63,2.6,1.78,2.29,3.41-.61,3.21-2.75,7.23-5.85,11.09-3.67,4.58-4.02,6.46-1.58,8.91l1.48,1.48h11.45c6.26,0,18.99.15,28.25.36l16.9.3v-1.53c0-3.87-3-8.65-6.36-10.08-1.17-.51-4.63-.66-12.72-.66-10.84,0-15.02-.31-15.02-1.12,0-.2,1.88-1.88,4.22-3.71,13.39-10.69,21.43-24.18,20.61-34.71-.36-3.87-1.73-6.67-4.74-9.31-3.31-2.9-6.92-3.77-14.91-3.56-3.41.1-6.21,0-6.21-.15,0-.61,5.34-2.49,8.55-3,3.77-.61,8.19,0,11.65,1.63,4.43,2.09,8.45,7.48,9.11,12.17l.3,2.24,4.68.05c3.56,0,5.75.36,9.37,1.43,2.65.77,4.89,1.28,5.04,1.12.15-.1-.1-1.32-.56-2.64-.46-1.32-.81-2.75-.81-3.1s1.27-2.5,2.8-4.73c1.53-2.24,3.06-4.99,3.36-6.11.71-2.44,1.48-2.19,1.48.46,0,2.44-1.02,5.45-2.8,8.15-1.58,2.34-1.53,3.51.2,8.3.97,2.64,1.01,3.31.51,6.46-.71,4.38-.46,5.34,1.27,4.58.66-.31,1.53-1.12,1.88-1.78.81-1.53,1.27-1.53,1.68-.1.91,3.46-.31,6.51-2.55,6.51-1.12,0-1.22.1-.66,1.12,1.12,2.19,2.65,3.46,4.12,3.46.77,0,1.43-.25,1.43-.51,0-.3.36-.51.81-.51.61,0,.71.51.61,2.39q-.15,2.44-2.04,2.6c-1.07.1-1.93.3-1.93.51,0,.96,3.26,4.17,4.78,4.68,1.52.46,1.78.87,2.49,3.46.46,1.58.97,4.02,1.12,5.45.76,6.16,1.32,7.84,2.8,8.91,1.32.97,2.19,1.02,12.67,1.02h11.25v-1.17c0-2.24-1.02-4.78-2.54-6.21-1.68-1.58-1.63-2.34.15-1.93,2.65.66,4.94,4.12,4.94,7.53,0,1.73.05,1.78,2.09,1.78h2.09l-.2-3.06c-.15-2.34-.61-3.56-1.98-5.6-2.24-3.36-4.53-4.58-8.65-4.58s-6.11-1.01-7.43-3.46c-1.27-2.29-2.8-10.59-4.02-21.89-1.02-9.57-.71-13.08,1.63-17.71,1.63-3.21,2.49-3.56,2.04-.87-.67,4.07-.97,8.81-.51,8.81.25,0,2.19-1.48,4.33-3.26,7.07-6,12.72-14.2,14.2-20.66,1.02-4.48.97-4.33,1.78-3.26.41.51,1.12,2.19,1.58,3.61.41,1.48.97,2.7,1.17,2.7s1.02-1.27,1.78-2.85c2.7-5.3,2.29-11.4-1.27-17.97q-2.14-4.02,2.49-1.98c1.22.56,2.34.87,2.49.71.15-.1.1-1.17-.1-2.34-.46-2.85-3.46-6.46-9.36-11.2-5.24-4.27-7.69-7.43-7.69-9.98,0-.92.21-1.78.46-1.94.21-.15,1.99.15,3.92.72,3.56.97,6.31,3.1,6.31,4.84,0,1.17,1.18.92,3.46-.76,2.9-2.09,3.87-4.12,3.71-7.84-.05-1.63-.2-3.21-.35-3.41-.11-.2-1.07.15-2.09.81-1.02.71-2.09,1.27-2.39,1.27-.82,0-6.06-2.04-6.77-2.65-1.17-.97-.71-2.9,1.07-4.89,1.63-1.73,1.93-1.88,4.33-1.78,3.67.15,5.65,1.32,5.65,3.21s1.12,1.98,2.04.2c.41-.71,1.37-1.63,2.14-2.04.81-.46,1.94-1.78,2.6-3.05l1.12-2.34-1.94-1.73c-2.75-2.55-2.65-2.9.82-2.8ZM567.6,424.21c1.58.97,3.56,3.41,3.1,3.82-.1.1-1.48-.35-3.05-1.07-1.94-.92-3.26-1.22-4.12-.97-3,.76-3.71,4.48-1.53,8.2.71,1.27,1.22,2.39,1.07,2.49-.36.36-3.51-2.04-4.63-3.51-.76-1.02-1.07-2.19-1.02-3.82.05-5.65,5.19-8.25,10.18-5.14ZM559.05,446.19c-4.12,3.92-7.02,10.38-7.02,15.42,0,1.22-.21,2.29-.46,2.49-.76.46-1.78-3.36-1.78-6.62.05-5.29,2.75-9.77,7.54-12.47,4.23-2.44,4.94-1.93,1.73,1.17ZM544.85,451.34c-.25-.15-.46-1.58-.46-3.16,0-6.06,4.84-12.27,9.62-12.32h1.73l-2.34,1.83c-3,2.34-5.6,6.26-7.03,10.54-.61,1.88-1.32,3.26-1.53,3.11ZM554.01,494.65c-5.04-2.65-7.79-7.38-7.84-13.49,0-3.56,1.27-8.65,2.19-8.65.2,0,.36,2.14.41,4.73.05,5.65,1.22,9.06,4.58,13.54,1.22,1.63,2.24,3.36,2.24,3.82,0,.76-.1.76-1.58.05ZM557.58,470.73c-1.38-3.16-1.17-8.04.56-11.45,1.12-2.24,4.99-6.41,5.45-5.9.15.1-.51,1.73-1.43,3.61-2.09,4.27-2.5,8.91-1.27,15.02.51,2.29.76,4.28.66,4.43-.41.36-2.8-3.05-3.97-5.7ZM563.73,501.68c-3.72-3.97-4.89-7.13-4.43-12.47.25-3.26.86-5.29,1.17-4.23.1.31.51,2.14.92,4.17.41,2.04,1.78,5.85,3.05,8.5,1.27,2.7,2.34,5.39,2.34,6.01-.05,1.02-.46.71-3.05-1.98ZM568.88,482.99c-2.04-3-2.8-5.65-2.8-9.77.05-2.75.3-4.17,1.27-6.11l1.22-2.49.31,5.6c.2,4.43.56,6.26,1.63,8.8.72,1.78,2.04,4.38,2.9,5.8.86,1.43,1.48,2.7,1.33,2.85-.51.51-4.48-2.65-5.85-4.68ZM573.76,509.21c-1.52,3.16-3.77,5.91-4.28,5.35-.2-.2.05-1.89.56-3.77.51-1.88,1.27-4.53,1.63-5.95.41-1.37.71-4.17.71-6.21s.2-3.72.46-3.72.87,1.12,1.32,2.55c1.32,4.07,1.17,8.55-.41,11.76ZM583.64,483.81c.61,1.17,1.22,3.41,1.32,5.04.31,3.26-.2,8.6-.81,8.6-.25,0-.56-1.27-.76-2.8-.46-3.92-2.04-8.35-4.94-13.79-1.38-2.54-2.5-4.99-2.5-5.34.05-1.07,6.42,5.85,7.69,8.3Z"/><path class="cls-2" d="M585.72,521.22c-2.14,3.56-6.16,7.79-10.58,11.14l-3.87,2.95,1.48,1.02c.76.56,2.6,2.14,4.02,3.46,1.43,1.38,2.75,2.44,2.95,2.44s.31-1.02.25-2.29c-.1-1.27-.05-2.29.05-2.34.97-.16,2.14.96,3,2.85,1.83,3.87,5.45,6.41,4.83,3.41-.82-4.02,0-4.17,2.49-.46,1.73,2.65,3.87,4.53,3.97,3.56.05-.2,0-1.17-.05-2.09-.05-.86.1-1.63.31-1.63s2.03.92,4.12,2.04l3.72,2.03,9.77-.1,9.82-.15.15-1.27c.31-2.04-.81-4.94-2.44-6.31-1.83-1.53-1.89-1.83-.25-1.83.71,0,1.93.61,2.8,1.37,1.27,1.17,1.68,2.04,2.14,4.88q.56,3.46,2.14,3.31c1.48-.15,1.58-.31,1.73-2.39.2-2.9-2.29-8.15-4.79-10.03-1.94-1.53-4.07-1.68-9.41-.71-5.09.92-6.11.51-15.17-6.26-2.65-1.98-6.26-4.78-7.99-6.31-1.78-1.48-3.31-2.7-3.46-2.7-.1,0-.86,1.07-1.73,2.39Z"/><path class="cls-2" d="M519.76,533.54c-.66.25-1.22,1.48-1.93,4.17-2.09,8.14-6.72,15.73-14.15,23.11-2.49,2.49-4.58,4.73-4.58,4.99,0,.2,4.07.36,9.06.31,6.16-.05,9.47.1,10.54.51,3.82,1.58,6.82,5.14,7.99,9.42.36,1.27.92,2.39,1.33,2.45.41.1,4.38.1,8.81,0,8.04-.15,8.09-.15,8.09-1.33,0-3.72-3.72-9.47-6.77-10.38-.86-.31-4.18-.66-7.28-.82-3.92-.2-6.57-.61-8.5-1.32-4.37-1.63-4.48-2.04-1.37-5.19,3.66-3.66,7.33-8.65,9.01-12.06,1.63-3.31,1.88-8.24.56-11.3-.67-1.53-1.18-1.94-3.11-2.44-2.6-.61-6.21-.72-7.69-.1Z"/><path class="cls-2" d="M366.62,625.36c-1.67,1.39-8.03,7.51-19.06,18.37-3.25,3.25-7.19,4.87-11.83,4.87s-8.58-1.62-11.83-4.87l-43.14-43.14c3.24-3.25,7.18-4.87,11.82-4.87s8.57,1.63,11.82,4.89l31.33,31.33,30.94-30.19c3.22,3.33,4.83,7.27,4.83,11.81s-1.62,8.57-4.87,11.81ZM297.46,662.62c0,4.65-1.62,8.6-4.87,11.85-3.25,3.26-7.19,4.88-11.83,4.88v-44.77c0-4.65,1.62-8.6,4.87-11.85,3.25-3.25,7.19-4.88,11.83-4.88v44.77ZM389.3,679.35c-4.64,0-8.58-1.62-11.83-4.88-3.25-3.25-4.87-7.2-4.87-11.85v-66.9c4.64,0,8.58,1.63,11.83,4.88,3.25,3.25,4.87,7.2,4.87,11.85v66.9Z"/><path class="cls-2" d="M466.82,614.93l-32.42,56.08c-3.25,5.56-8.08,8.35-14.48,8.35-2.97,0-5.75-.74-8.35-2.23l32.42-56.08c3.25-5.57,8.07-8.35,14.48-8.35,2.97,0,5.75.74,8.35,2.23ZM522.89,676.99c-2.6,1.58-5.34,2.37-8.22,2.37-6.5,0-11.38-2.82-14.63-8.47l-4.73-8.23h-28.09c-4.64,0-8.58-1.62-11.82-4.87-3.25-3.25-4.87-7.19-4.87-11.83h35.05l-27.84-47.99c2.6-1.49,5.39-2.24,8.36-2.24,6.41,0,11.24,2.78,14.49,8.35l42.3,72.92Z"/><path class="cls-2" d="M559.07,662.62c0,4.65-1.62,8.6-4.87,11.85-3.25,3.26-7.19,4.88-11.83,4.88v-44.77c0-4.65,1.62-8.6,4.87-11.85,3.25-3.25,7.19-4.88,11.83-4.88v44.77ZM609.16,643.73c-3.24,3.25-7.18,4.87-11.82,4.87s-8.58-1.63-11.82-4.89l-43.14-43.14c3.24-3.23,7.18-4.85,11.82-4.85s8.57,1.62,11.82,4.87l43.14,43.14ZM625.86,679.35c-4.64,0-8.58-1.62-11.83-4.88-3.25-3.25-4.87-7.2-4.87-11.85v-66.9c4.64,0,8.58,1.63,11.83,4.88,3.25,3.25,4.87,7.2,4.87,11.85v66.9Z"/><path class="cls-2" d="M731.61,595.72c0,4.64-1.62,8.58-4.87,11.83-3.25,3.25-7.19,4.87-11.83,4.87h-66.79c0-4.64,1.62-8.58,4.87-11.83s7.19-4.87,11.83-4.87h66.79ZM698.21,679.35c-4.64,0-8.58-1.63-11.83-4.88-3.25-3.25-4.87-7.2-4.87-11.85v-50.2c4.64,0,8.58,1.63,11.83,4.88,3.25,3.25,4.87,7.2,4.87,11.85v50.2Z"/><path class="cls-2" d="M765.01,679.35c-4.64,0-8.58-1.62-11.83-4.88-3.25-3.25-4.87-7.2-4.87-11.85v-66.9c4.64,0,8.58,1.63,11.83,4.88,3.25,3.25,4.87,7.2,4.87,11.85v66.9Z"/><path class="cls-2" d="M763.63,578.11h-167.49c.24,1.71.38,3.45.41,5.21h167.08c1.44,0,2.61-1.16,2.61-2.6s-1.17-2.61-2.61-2.61ZM285.84,578.11c-1.44,0-2.61,1.17-2.61,2.61s1.17,2.6,2.61,2.6h132.69c-1.09-1.67-2.08-3.41-2.96-5.21h-129.74ZM741.26,565.73c0-1.29-1.05-2.33-2.34-2.33h-147.59c.8,1.51,1.53,3.07,2.16,4.67h145.43c1.29,0,2.34-1.05,2.34-2.34ZM310.54,568.07h101.6c-.32-1.53-.57-3.09-.73-4.67h-100.87c-1.29,0-2.34,1.05-2.34,2.33s1.05,2.34,2.34,2.34ZM342.77,551.43h69.09c.24-1.34.53-2.67.89-3.97h-69.98c-1.1,0-1.99.89-1.99,1.98s.89,1.98,1.99,1.98ZM708.68,549.44c0-1.09-.89-1.98-1.99-1.98h-69.26c-.25,1.37-.67,2.71-1.26,3.97h70.52c1.1,0,1.99-.89,1.99-1.98Z"/><path class="cls-2" d="M283.23,693.4c0-1.44,1.17-2.61,2.61-2.61h477.79c1.44,0,2.61,1.17,2.61,2.61h0c0,1.44-1.17,2.6-2.61,2.6h-477.79c-1.44,0-2.61-1.16-2.61-2.6h0Z"/><path class="cls-2" d="M340.78,742.1c0-1.1.89-1.98,1.99-1.98h363.93c1.1,0,1.99.89,1.99,1.98h0c0,1.1-.89,1.98-1.99,1.98h-363.93c-1.1,0-1.99-.89-1.99-1.98h0Z"/><path class="cls-2" d="M355.05,728.5c0,1.15-.4,2.12-1.21,2.93-.8.8-1.78,1.2-2.93,1.2h-8.27c0-1.14.4-2.11,1.21-2.9s1.78-1.2,2.93-1.2l4.13-.03v-22.7c1.15,0,2.12.4,2.93,1.2.8.8,1.21,1.78,1.21,2.92v18.57Z"/><path class="cls-2" d="M395.69,705.8c0,1.15-.4,2.12-1.21,2.93-.8.8-1.78,1.2-2.93,1.2h-8.27v4.13c-1.15,0-2.12-.4-2.93-1.2s-1.21-1.78-1.21-2.93.4-2.12,1.21-2.93,1.78-1.21,2.93-1.21h12.4ZM395.69,722.37c0,1.15-.4,2.12-1.21,2.93-.8.8-1.78,1.21-2.93,1.21h-8.27c-1.15,0-2.12-.4-2.93-1.21-.8-.81-1.21-1.79-1.21-2.94v-4.15c0-1.15.4-2.12,1.21-2.93s1.78-1.21,2.93-1.21h12.4c0,1.15-.4,2.12-1.21,2.93-.8.8-1.78,1.2-2.93,1.2h-8.27v4.17h12.4Z"/><path class="cls-2" d="M435.93,725.91c-.64.39-1.33.59-2.07.59-1.59,0-2.78-.69-3.59-2.07l-10.47-18.08c.64-.37,1.33-.55,2.07-.55,1.59,0,2.78.69,3.59,2.06l10.47,18.05ZM441.3,721.71c-.64.37-1.33.55-2.07.55-1.59,0-2.78-.69-3.58-2.07l-8.02-13.88c.64-.35,1.33-.52,2.07-.52,1.58,0,2.78.68,3.58,2.03l8.02,13.88ZM455.18,706.35l-10.47,18.05c-.78,1.4-1.98,2.1-3.59,2.1-.74,0-1.43-.2-2.07-.59l10.47-18.05c.8-1.37,2.01-2.06,3.62-2.06.73,0,1.41.18,2.03.55Z"/><path class="cls-2" d="M495.57,705.8c0,1.15-.4,2.12-1.2,2.93-.8.8-1.78,1.2-2.93,1.2h-8.27v4.13c-1.15,0-2.12-.4-2.93-1.2s-1.2-1.78-1.2-2.93.4-2.12,1.2-2.93,1.78-1.21,2.93-1.21h12.4ZM495.57,722.37c0,1.15-.4,2.12-1.2,2.93-.8.8-1.78,1.21-2.93,1.21h-8.27c-1.15,0-2.12-.4-2.93-1.21-.8-.81-1.2-1.79-1.2-2.94v-4.15c0-1.15.4-2.12,1.2-2.93s1.78-1.21,2.93-1.21h12.4c0,1.15-.4,2.12-1.2,2.93-.8.8-1.78,1.2-2.93,1.2h-8.27v4.17h12.4Z"/><path class="cls-2" d="M536.22,726.5h-12.4c-1.15,0-2.12-.4-2.93-1.21s-1.2-1.78-1.2-2.93v-16.57c1.15,0,2.12.4,2.93,1.21.8.81,1.21,1.78,1.21,2.93v12.43l8.27-.03c1.15,0,2.12.41,2.93,1.22.8.81,1.2,1.79,1.2,2.95Z"/><path class="cls-2" d="M603.79,710.55l-8.03,13.88c-.8,1.38-2,2.07-3.58,2.07-.73,0-1.42-.18-2.07-.55l8.02-13.88c.8-1.38,2-2.07,3.58-2.07.73,0,1.42.18,2.07.55ZM617.67,725.91c-.64.39-1.32.59-2.03.59-1.61,0-2.82-.7-3.62-2.1l-1.17-2.04h-6.95c-1.15,0-2.12-.4-2.93-1.21-.8-.8-1.2-1.78-1.2-2.93h8.68l-6.89-11.88c.64-.37,1.33-.56,2.07-.56,1.59,0,2.78.69,3.59,2.07l10.47,18.05Z"/><path class="cls-2" d="M645.23,726.5c-1.15,0-2.12-.4-2.93-1.21-.8-.81-1.2-1.78-1.2-2.93v-16.56c1.15,0,2.12.4,2.93,1.21s1.21,1.78,1.21,2.93v16.57ZM661.76,714.07c0,1.15-.4,2.12-1.2,2.93-.8.8-1.78,1.2-2.93,1.2h-8.27c-1.15,0-2.12-.4-2.93-1.2s-1.2-1.78-1.2-2.93h12.4v-4.13h-8.27c-1.15,0-2.12-.4-2.93-1.2s-1.2-1.78-1.2-2.93h12.4c1.15,0,2.12.4,2.93,1.21.8.8,1.2,1.78,1.2,2.93v4.13ZM661.76,726.5c-1.15,0-2.12-.4-2.93-1.21-.8-.81-1.21-1.79-1.21-2.94v-4.15c1.15,0,2.12.4,2.93,1.21.8.81,1.2,1.79,1.2,2.94v4.15Z"/><path class="cls-2" d="M706.53,705.8c0,1.15-.4,2.12-1.2,2.93-.8.8-1.78,1.2-2.93,1.2h-16.53c0-1.15.4-2.12,1.2-2.93s1.78-1.21,2.93-1.21h16.53ZM698.26,726.5c-1.15,0-2.12-.4-2.93-1.21s-1.21-1.78-1.21-2.93v-12.43c1.15,0,2.12.4,2.93,1.21.8.81,1.2,1.78,1.2,2.93v12.43Z"/><path class="cls-3" d="M387.25,340.12c-.01-.47.3-.46.63-.43,44.41,11.48,84.38,32.31,107.87,60.88-34.94-5.1-65.19,1.2-92.66,9.24,15.84-25.75,5.8-57.95-15.84-69.69Z"/><path class="cls-3" d="M496.23,406.72c-19.89,15.88-39.66,31.93-52.91,57.62-2.6-24.12-13.14-42.86-37.98-51.9,25.27-9.31,54.72-12.46,90.88-5.72Z"/><path class="cls-3" d="M529.86,478.23c-19.17-9.21-30.19-31.45-23.42-55.78,2.3-8.28,6.14-17.28,14.92-17.52.91,2.57-1.02,5.98-2.06,7.87,11.09-3.55,4.32-21.87-7.57-17.98,1.79,1.41,5.18,1.73,6.5,3.45-1.45,1.95-4.44,1.63-6.13,3.23-26.26-25.79-58.17-47.75-102.88-61.03l-21.25-4.07c-.97,1.07-3.74-.51-5.41-.49l-.31,1.59c57.16,10.54,98.13,36.05,126.39,67.74-16.23,26.49-11.57,63.2,9.1,76.11-23.11-9-28.87-38.1-18.91-68.07-22.63,11.38-40.13,30.33-54.42,54.02,24.18-3.36,44.99,11.17,50.31,27.82,7.69-.58,18.32,2.09,23.85,6.03,1.95-8.63,5.91-16.41,11.29-22.92Z"/><path class="cls-3" d="M526.95,467.52s-18.35-16.76-9.84-48.15c0,0-17.03,32.45,9.84,48.15Z"/><path class="cls-2" d="M786.91,578.49c-6.81,0-12.33,5.52-12.33,12.33s5.52,12.33,12.33,12.33,12.33-5.52,12.33-12.33-5.52-12.33-12.33-12.33ZM786.91,601.83c-6.08,0-11.01-4.93-11.01-11.01s4.93-11.01,11.01-11.01,11.01,4.93,11.01,11.01-4.93,11.01-11.01,11.01Z"/><path class="cls-2" d="M783.63,596.76c-.64,0-1.18-.22-1.62-.67-.44-.45-.67-.99-.67-1.62v-9.16c.63,0,1.17.22,1.62.67s.67.98.67,1.62v9.16ZM792.78,589.88c0,.64-.22,1.18-.67,1.62s-.98.67-1.62.67h-4.57c-.64,0-1.18-.22-1.62-.67s-.67-.98-.67-1.62h6.86v-2.29h-4.57c-.64,0-1.18-.22-1.62-.67s-.67-.98-.67-1.62h6.86c.64,0,1.18.22,1.62.67s.67.98.67,1.62v2.29ZM792.78,596.76c-.63,0-1.17-.22-1.62-.67s-.67-.99-.67-1.63v-2.3c.64,0,1.18.22,1.62.67.44.45.67.99.67,1.63v2.3Z"/></g></svg>